HIERARCHY
ROOT pelvis
{
	OFFSET 0.000000 0.000000 0.735139
	CHANNELS 6 Xposition Yposition Zposition Xrotation Yrotation Zrotation
	JOINT spine
	{
		OFFSET 0.000000 0.000000 0.000000
		CHANNELS 6 Xposition Yposition Zposition Xrotation Yrotation Zrotation
		JOINT spine.001
		{
			OFFSET 0.000000 -0.013834 0.263967
			CHANNELS 3 Xrotation Yrotation Zrotation
			JOINT neck
			{
				OFFSET 0.000000 0.032214 0.262359
				CHANNELS 6 Xposition Yposition Zposition Xrotation Yrotation Zrotation
				JOINT face
				{
					OFFSET 0.000000 0.003392 0.194320
					CHANNELS 6 Xposition Yposition Zposition Xrotation Yrotation Zrotation
					End Site
					{
						OFFSET 0.000000 -0.033564 -0.007568
					}
				}
			}
			JOINT shoulder.L
			{
				OFFSET 0.000000 0.032214 0.262359
				CHANNELS 6 Xposition Yposition Zposition Yrotation Xrotation Zrotation
				JOINT upper_arm.L
				{
					OFFSET 0.161691 0.000000 0.000000
					CHANNELS 6 Xposition Yposition Zposition Xrotation Yrotation Zrotation
					JOINT forearm.L
					{
						OFFSET 0.286043 0.000114 0.000945
						CHANNELS 6 Xposition Yposition Zposition Xrotation Yrotation Zrotation
						End Site
						{
							OFFSET 0.231722 -0.003940 -0.001302
						}
					}
				}
			}
			JOINT shoulder.R
			{
				OFFSET 0.000000 0.032214 0.262359
				CHANNELS 6 Xposition Yposition Zposition Yrotation Xrotation Zrotation
				JOINT upper_arm.R
				{
					OFFSET -0.161691 0.000000 0.000000
					CHANNELS 6 Xposition Yposition Zposition Xrotation Yrotation Zrotation
					JOINT forearm.R
					{
						OFFSET -0.292950 0.000114 0.000945
						CHANNELS 6 Xposition Yposition Zposition Xrotation Yrotation Zrotation
						End Site
						{
							OFFSET -0.233593 -0.003973 -0.001302
						}
					}
				}
			}
		}
	}
	JOINT pelvis.L
	{
		OFFSET 0.000000 0.000000 0.000000
		CHANNELS 6 Xposition Yposition Zposition Yrotation Xrotation Zrotation
		End Site
		{
			OFFSET 0.100878 0.000000 0.000000
		}
	}
	JOINT pelvis.R
	{
		OFFSET 0.000000 0.000000 0.000000
		CHANNELS 6 Xposition Yposition Zposition Yrotation Xrotation Zrotation
		End Site
		{
			OFFSET -0.100878 0.000000 0.000000
		}
	}
	JOINT thigh.L
	{
		OFFSET 0.100878 0.000000 0.000000
		CHANNELS 6 Xposition Yposition Zposition Xrotation Yrotation Zrotation
		JOINT shin.L
		{
			OFFSET 0.018876 0.000000 -0.360167
			CHANNELS 6 Xposition Yposition Zposition Xrotation Yrotation Zrotation
			JOINT foot.L
			{
				OFFSET 0.015738 0.000000 -0.300298
				CHANNELS 3 Xrotation Yrotation Zrotation
				End Site
				{
					OFFSET 0.015484 -0.157873 -0.066294
				}
			}
			JOINT heel.02.L
			{
				OFFSET 0.015738 0.000000 -0.300298
				CHANNELS 3 Xrotation Yrotation Zrotation
				End Site
				{
					OFFSET 0.085742 0.033991 -0.069376
				}
			}
		}
	}
	JOINT thigh.R
	{
		OFFSET -0.100878 0.000000 0.000000
		CHANNELS 6 Xposition Yposition Zposition Xrotation Yrotation Zrotation
		JOINT shin.R
		{
			OFFSET -0.018964 0.000000 -0.361860
			CHANNELS 6 Xposition Yposition Zposition Xrotation Yrotation Zrotation
			JOINT foot.R
			{
				OFFSET -0.016050 0.000000 -0.306243
				CHANNELS 3 Xrotation Yrotation Zrotation
				End Site
				{
					OFFSET -0.016759 -0.170877 -0.071754
				}
			}
			JOINT heel.02.R
			{
				OFFSET -0.016050 0.000000 -0.306243
				CHANNELS 3 Xrotation Yrotation Zrotation
				End Site
				{
					OFFSET -0.074346 0.033991 -0.062313
				}
			}
		}
	}
}
MOTION
Frames: 11
Frame Time: 0.041667
0.029253 0.031961 0.736933 -0.000000 0.000000 -0.473443 0.000000 0.000000 0.000000 -9.148369 1.039890 0.138278 9.996631 0.219252 1.785967 -0.000000 0.032214 0.262359 8.138276 0.544028 1.385853 0.000000 0.003392 0.194320 -0.947605 -0.000000 -0.000001 0.000000 0.032214 0.262358 0.633597 0.000430 -0.077791 0.161691 -0.000000 0.000000 23.482426 75.050658 -30.279513 0.286043 0.000114 0.000945 3.030962 10.365845 -32.460713 0.000000 0.032214 0.262358 0.685681 0.000504 -0.084186 -0.161691 0.000000 -0.000000 19.379945 -73.877314 25.588399 -0.292950 0.000114 0.000945 2.134666 -8.500011 28.220501 0.000000 -0.000000 0.000000 0.965079 -0.000000 -0.000033 0.000000 -0.000000 0.000000 0.965079 -0.000000 0.000000 0.100864 -0.000000 -0.001699 1.181408 5.099840 0.009324 0.018876 0.000000 -0.360167 1.065398 -0.701883 0.062343 -0.924899 -2.022954 4.478742 -7.325790 42.690462 31.587699 -0.100864 0.000000 0.001699 2.075798 -1.643329 -0.079086 -0.018964 0.000000 -0.361860 1.102004 1.255874 -0.069794 -9.501938 5.561879 -8.722766 -15.676220 -48.779312 -41.508094 
0.030082 0.033565 0.734403 -0.000000 0.000000 -0.133344 0.000000 0.000000 0.000000 -8.905443 1.109365 0.145124 9.999013 0.117366 0.955981 -0.000000 0.032214 0.262358 7.656398 0.264396 2.354079 0.000000 0.003392 0.194320 -0.704546 -0.000000 -0.000001 0.000000 0.032213 0.262359 1.063250 0.001210 -0.130621 0.161691 -0.000000 -0.000000 29.654861 73.540606 -38.988332 0.286043 0.000114 0.000945 3.012909 10.143371 -33.024241 0.000000 0.032213 0.262359 1.115292 0.001332 -0.136988 -0.161691 -0.000000 0.000000 22.452633 -73.706730 29.654489 -0.292950 0.000114 0.000945 2.566598 -9.152271 31.388274 0.000000 0.000000 -0.000000 0.163649 -0.000000 -0.000021 0.000000 0.000000 -0.000000 0.163615 -0.000000 0.000000 0.100878 -0.000000 -0.000288 1.108034 5.237550 0.007408 0.018876 -0.000000 -0.360167 1.062693 -0.721790 0.062369 -2.252101 -1.711764 3.347624 -7.957803 43.430612 32.229907 -0.100878 -0.000000 0.000288 1.871342 -1.565580 -0.072563 -0.018964 -0.000000 -0.361860 1.523943 1.091393 -0.094340 -9.173914 5.782908 -9.267323 -16.152084 -49.158979 -42.118840 
0.030448 0.034487 0.732526 -0.000000 0.000000 -0.175464 0.000000 0.000000 0.000000 -8.755100 1.106606 0.143287 9.999542 0.082688 0.673482 -0.000000 0.032214 0.262359 7.240152 0.140360 2.990998 0.000000 0.003392 0.194320 -0.419377 -0.000000 -0.000000 -0.000000 0.032214 0.262359 1.282660 0.001762 -0.157436 0.161691 0.000000 0.000000 34.286184 71.945238 -46.007044 0.286043 0.000114 0.000945 3.061536 9.795235 -34.823798 -0.000000 0.032214 0.262359 1.334658 0.001909 -0.163873 -0.161691 0.000000 0.000000 25.731549 -73.167124 34.190974 -0.292950 0.000114 0.000945 2.959285 -9.706490 33.979672 0.000000 0.000000 0.000000 -0.298760 -0.000000 0.000055 0.000000 0.000000 0.000000 -0.298760 -0.000000 0.000000 0.100877 -0.000000 0.000526 1.125481 5.313306 0.006777 0.018876 0.000000 -0.360167 1.043155 -0.717330 0.061182 -3.370445 -1.637218 2.853488 -8.574056 44.156657 32.920665 -0.100877 0.000000 -0.000526 1.703545 -1.547687 -0.066322 -0.018964 0.000000 -0.361860 1.785651 1.031797 -0.109617 -9.013011 5.825295 -9.411657 -16.309185 -49.274159 -42.294802 
0.030381 0.034755 0.731684 -0.000000 0.000000 -0.426863 0.000000 0.000000 0.000000 -8.700304 1.053634 0.135915 9.999312 0.101681 0.828251 -0.000000 0.032214 0.262359 6.920507 0.164016 3.209108 0.000000 0.003392 0.194320 -0.107519 -0.000000 0.000001 -0.000000 0.032214 0.262358 1.248884 0.001670 -0.153293 0.161691 0.000000 0.000000 37.274012 70.531416 -50.937550 0.286043 0.000114 0.000945 3.163348 9.346830 -37.778364 -0.000000 0.032214 0.262359 1.300925 0.001814 -0.159704 -0.161691 0.000000 0.000000 28.437277 -72.274057 38.245713 -0.292950 0.000114 0.000945 3.255122 -10.054877 35.967397 0.000000 -0.000000 0.000000 -0.442201 -0.000000 -0.000019 0.000000 -0.000000 0.000000 -0.442202 0.000000 0.000000 0.100875 -0.000000 0.000779 1.209270 5.308148 0.007337 0.018876 0.000000 -0.360167 0.985667 -0.671092 0.057413 -4.154496 -1.752462 2.879665 -9.016916 44.705118 33.512979 -0.100875 -0.000000 -0.000779 1.594519 -1.571092 -0.061750 -0.018964 -0.000000 -0.361860 1.892187 1.052901 -0.116506 -8.990561 5.749632 -9.277127 -16.188334 -49.162349 -42.084730 
0.030208 0.034951 0.731898 -0.000000 0.000000 -0.450598 0.000000 0.000000 0.000000 -8.674479 1.024768 0.131956 9.999192 0.111221 0.905929 -0.000000 0.032214 0.262359 6.677869 0.208058 3.178392 0.000000 0.003392 0.194320 0.199759 0.000000 0.000001 0.000000 0.032214 0.262358 1.082186 0.001255 -0.132860 0.161691 0.000000 0.000000 38.689081 69.385570 -53.714066 0.286043 0.000114 0.000945 3.284120 9.049297 -40.509859 0.000000 0.032214 0.262359 1.134227 0.001378 -0.139246 -0.161691 -0.000000 -0.000000 29.903306 -71.317864 40.793076 -0.292950 0.000114 0.000945 3.460456 -10.177083 37.705697 0.000000 0.000000 0.000000 -0.505273 -0.000000 0.000038 0.000000 0.000000 0.000000 -0.505307 -0.000000 0.000000 0.100874 -0.000000 0.000890 1.256129 5.243406 0.008333 0.018876 0.000000 -0.360167 0.908486 -0.579183 0.052191 -4.576972 -1.809418 2.881891 -9.132096 44.906680 33.805318 -0.100874 -0.000000 -0.000890 1.524019 -1.569535 -0.059041 -0.018964 -0.000000 -0.361860 1.995096 1.042823 -0.122670 -8.981783 5.741962 -9.266051 -16.098952 -49.058633 -41.864214 
0.030039 0.035442 0.732866 -0.000000 0.000000 -0.139334 0.000000 0.000000 0.000000 -8.630052 1.059580 0.136022 9.999532 0.080582 0.656314 -0.000000 0.032214 0.262359 6.457513 0.189534 3.138348 -0.000000 0.003392 0.194320 0.492972 -0.000000 -0.000000 -0.000000 0.032214 0.262359 0.939232 0.000945 -0.115329 0.161691 -0.000000 0.000000 39.244703 68.401483 -55.285170 0.286043 0.000114 0.000945 3.322168 8.921877 -41.560970 0.000000 0.032214 0.262359 0.991231 0.001052 -0.121730 -0.161692 -0.000000 -0.000000 30.432062 -70.524080 42.039726 -0.292950 0.000114 0.000945 3.604877 -10.204018 39.122985 -0.000000 -0.000000 0.000000 -0.587778 -0.000000 -0.000078 -0.000000 -0.000000 0.000000 -0.587745 -0.000000 0.000000 0.100873 -0.000000 0.001035 1.205360 5.145550 0.009030 0.018876 -0.000000 -0.360167 0.873251 -0.454850 0.049223 -4.751740 -1.708599 2.619402 -8.997585 44.822976 33.802657 -0.100873 -0.000000 -0.001035 1.444183 -1.531070 -0.056431 -0.018964 0.000000 -0.361860 2.209271 0.968228 -0.134408 -8.960836 5.868927 -9.515341 -16.208679 -49.078273 -41.790389 
0.029713 0.035894 0.734030 -0.000000 0.000000 0.239590 0.000000 0.000000 0.000000 -8.591572 1.133497 0.145124 9.999857 0.036194 0.294657 -0.000000 0.032214 0.262359 6.250260 0.130946 3.222057 0.000000 0.003392 0.194320 0.763017 -0.000000 0.000001 -0.000000 0.032213 0.262359 0.864946 0.000802 -0.106311 0.161691 0.000000 -0.000000 39.744249 67.548078 -56.693118 0.286043 0.000114 0.000945 3.163735 8.696832 -40.724088 0.000000 0.032213 0.262359 0.917032 0.000901 -0.112653 -0.161691 -0.000000 0.000000 30.627022 -69.969803 42.691992 -0.292950 0.000114 0.000945 3.683149 -10.257393 39.727601 -0.000000 -0.000000 0.000000 -0.603250 -0.000000 0.000030 -0.000000 -0.000000 0.000000 -0.603250 -0.000000 -0.000000 0.100872 -0.000000 0.001062 1.117523 5.023135 0.009571 0.018876 -0.000000 -0.360167 0.888629 -0.308161 0.048955 -4.829690 -1.563546 2.291295 -8.835268 44.690054 33.729291 -0.100872 0.000000 -0.001062 1.357347 -1.510701 -0.053280 -0.018964 0.000000 -0.361860 2.490555 0.906925 -0.150197 -8.994197 6.034069 -9.814874 -16.422515 -49.146548 -41.742097 
0.029197 0.035576 0.734760 -0.000000 0.000000 0.394580 0.000000 0.000000 0.000000 -8.627255 1.187264 0.152384 9.999954 0.022786 0.185537 -0.000000 0.032214 0.262359 6.117236 0.103295 3.416485 0.000000 0.003392 0.194320 0.988043 -0.000000 0.000001 -0.000000 0.032214 0.262359 0.802942 0.000691 -0.098609 0.161691 -0.000000 -0.000000 40.254427 67.031060 -57.828165 0.286043 0.000114 0.000945 2.901588 8.311373 -39.283512 0.000000 0.032214 0.262359 0.854984 0.000783 -0.105010 -0.161691 -0.000000 -0.000000 30.655866 -69.715468 42.913115 -0.292950 0.000114 0.000945 3.695975 -10.360086 39.454434 0.000000 -0.000000 -0.000000 -0.524706 -0.000000 -0.000042 0.000000 -0.000000 -0.000000 -0.524740 -0.000000 -0.000000 0.100874 0.000000 0.000924 1.127204 4.897919 0.010891 0.018876 0.000000 -0.360167 0.890017 -0.166269 0.047931 -4.942467 -1.520346 2.170052 -8.810380 44.709360 33.806288 -0.100874 -0.000000 -0.000924 1.333538 -1.541336 -0.051989 -0.018964 -0.000000 -0.361860 2.698591 0.925416 -0.163182 -9.093338 6.105825 -9.910056 -16.544950 -49.146438 -41.588083 
0.028760 0.034207 0.734700 -0.000000 0.000000 0.178236 0.000000 0.000000 0.000000 -8.759660 1.162751 0.150604 9.999710 0.064505 0.525340 0.000000 0.032214 0.262359 6.090546 0.153702 3.604323 0.000000 0.003392 0.194320 1.168075 0.000000 0.000000 0.000000 0.032214 0.262359 0.732888 0.000575 -0.090040 0.161691 -0.000000 -0.000000 40.359560 67.021381 -57.974612 0.286043 0.000114 0.000945 2.726144 7.979830 -38.598116 0.000000 0.032214 0.262359 0.784930 0.000660 -0.096400 -0.161691 -0.000000 0.000000 30.383827 -69.766107 42.513659 -0.292950 0.000114 0.000945 3.700593 -10.545318 38.786947 0.000000 -0.000000 0.000000 -0.492645 -0.000000 -0.000017 0.000000 -0.000000 0.000000 -0.492679 0.000000 -0.000000 0.100874 -0.000000 0.000867 1.313998 4.851358 0.013231 0.018876 -0.000000 -0.360167 0.850675 -0.122343 0.045488 -5.225028 -1.659692 2.387828 -9.025945 44.970123 34.094395 -0.100874 -0.000000 -0.000867 1.404568 -1.578211 -0.054307 -0.018964 -0.000000 -0.361860 2.757841 0.981126 -0.168102 -9.179492 6.000556 -9.676139 -16.433500 -49.009705 -41.289761 
0.028683 0.032383 0.734007 -0.000000 0.000000 -0.415175 0.000000 0.000000 0.000000 -8.921287 1.043720 0.136683 9.998349 0.150972 1.229669 -0.000000 0.032214 0.262359 6.109112 0.260988 3.633302 0.000000 0.003392 0.194320 1.324815 -0.000000 -0.000000 -0.000000 0.032213 0.262359 0.733308 0.000575 -0.090103 0.161691 0.000000 -0.000000 39.965250 67.341390 -57.168055 0.286043 0.000114 0.000945 2.629718 7.787551 -38.244661 -0.000000 0.032213 0.262359 0.785308 0.000660 -0.096477 -0.161691 -0.000000 0.000000 29.897801 -70.030572 41.678047 -0.292950 0.000114 0.000945 3.709281 -10.838943 37.786584 0.000000 -0.000000 -0.000000 -0.631384 -0.000000 -0.000004 0.000000 -0.000000 -0.000000 -0.631384 -0.000000 0.000000 0.100872 -0.000000 0.001112 1.619726 4.974869 0.014558 0.018876 -0.000000 -0.360167 0.834866 -0.282903 0.045808 -5.745095 -1.992106 2.937870 -9.528972 45.449616 34.498886 -0.100872 -0.000000 -0.001112 1.482918 -1.555640 -0.057628 -0.018964 0.000000 -0.361860 2.745357 0.979925 -0.167312 -9.202190 5.711122 -9.120510 -16.063131 -48.727102 -40.862723 
0.029002 0.030822 0.733151 -0.000000 0.000000 -1.171553 0.000000 0.000000 0.000000 -9.040630 0.877923 0.115900 9.995888 0.240106 1.955885 0.000000 0.032214 0.262359 6.121768 0.352356 3.432118 -0.000000 0.003392 0.194320 1.442320 0.000000 -0.000000 0.000000 0.032213 0.262359 0.891030 0.000851 -0.109455 0.161691 -0.000000 0.000000 39.459758 67.721633 -56.166244 0.286043 0.000114 0.000945 2.410071 7.540684 -36.347466 0.000000 0.032213 0.262359 0.943030 0.000954 -0.115853 -0.161691 -0.000000 0.000000 29.514644 -70.513275 40.833111 -0.292950 0.000114 0.000945 3.563358 -11.009184 35.746468 -0.000000 -0.000000 0.000000 -0.859713 -0.000001 -0.000069 -0.000000 -0.000000 0.000000 -0.859713 -0.000000 0.000000 0.100867 -0.000000 0.001514 1.915422 5.260144 0.012428 0.018876 -0.000000 -0.360167 0.891000 -0.639427 0.051654 -6.384500 -2.412784 3.619490 -10.185958 45.982404 34.844917 -0.100867 0.000000 -0.001514 1.470978 -1.471792 -0.058239 -0.018964 0.000000 -0.361860 2.804603 0.902783 -0.169043 -9.216604 5.345660 -8.423890 -15.590276 -48.386809 -40.404964 
